<svg height="120" viewBox="0 0 197 271" fill="none" xmlns="http://www.w3.org/2000/svg">
<path d="M116.813 75.0721C116.148 78.5321 113.673 81.6462 109.952 84.3304C106.24 87.0075 101.392 89.1793 96.2065 90.7759C91.0269 92.3705 85.5558 93.3773 80.6279 93.7488C75.6788 94.122 71.3638 93.8477 68.4569 92.9444C65.6007 92.0569 62.2447 89.7195 58.9224 86.3696C55.6176 83.0372 52.4196 78.7768 49.8627 74.1593C47.3043 69.539 45.4086 64.5986 44.6722 59.9081C43.9355 55.2153 44.3685 50.8441 46.3716 47.2756C50.5994 39.7437 54.3527 35.9383 58.7382 32.8513C60.8887 31.3376 63.1981 29.9916 65.8376 28.4531L66.0852 28.3088C68.8197 26.7148 71.8826 24.9201 75.3954 22.5587C80.7793 18.9395 86.3638 14.2505 91.1898 10.1984C92.6572 8.96628 94.0545 7.79306 95.3547 6.72668C98.1796 4.40984 100.499 2.63651 102.126 1.77545C102.923 1.35344 103.372 1.25291 103.564 1.25817C103.578 1.29897 103.597 1.36939 103.609 1.48166C104.218 7.10527 107.155 23.2976 111.587 36.8875C111.853 37.7042 112.117 38.5069 112.376 39.2974C116.426 51.6278 119.512 61.0231 116.813 75.0721Z" fill="#83AE44" stroke="#477700" stroke-width="2"/>
<path d="M88.2002 226.421C85.1712 223.638 83.8032 219.245 83.7471 213.899C83.6912 208.567 84.9459 202.439 86.9859 196.404C89.0235 190.375 91.8273 184.49 94.8269 179.655C97.8441 174.791 100.996 171.093 103.691 169.327C106.37 167.572 110.812 166.343 116.241 165.797C121.637 165.255 127.889 165.399 134.095 166.298C140.304 167.197 146.428 168.845 151.582 171.288C156.747 173.734 160.859 176.939 163.165 180.907C167.989 189.206 169.404 194.707 169.714 200.244C169.866 202.961 169.753 205.699 169.623 208.835L169.611 209.128C169.477 212.376 169.336 216.022 169.475 220.4C169.743 228.872 166.504 241.438 162.423 251.552C160.386 256.599 158.168 260.962 156.125 263.852C155.097 265.306 154.158 266.321 153.36 266.878C152.554 267.441 152.117 267.4 151.865 267.267C150.537 266.571 148.971 265.204 147.041 263.349C146.415 262.746 145.752 262.094 145.054 261.407C143.652 260.027 142.108 258.508 140.436 256.975C135.402 252.36 129 247.419 120.717 244.795C112.615 242.228 107.807 240.655 103.364 238.227C98.9324 235.804 94.8241 232.507 88.2002 226.421Z" fill="#A6E14E" stroke="#83AE44" stroke-width="2"/>
<path d="M131.299 132.927C128.175 135.362 124.314 136.08 120.078 135.537C115.828 134.992 111.258 133.181 106.844 130.638C97.9926 125.539 90.0319 117.652 86.7892 111.772C83.6064 106.001 83.067 96.3599 85.6066 87.2889C88.1414 78.2355 93.6522 70.0638 102.222 66.9664C111.238 63.7079 116.233 61.9769 121.176 61.3226C126.101 60.6707 131.02 61.0832 139.887 62.2505C148.641 63.4027 163.296 67.5883 175.328 72.1326C181.342 74.4042 186.647 76.7451 190.204 78.8147C191.995 79.8573 193.268 80.7884 193.976 81.5605C194.331 81.9482 194.479 82.227 194.525 82.3954C194.558 82.515 194.539 82.5518 194.502 82.6023C194.173 83.0597 193.468 83.632 192.323 84.3169C191.205 84.9857 189.772 85.7016 188.098 86.4803C186.749 87.1079 185.221 87.7853 183.592 88.5076C181.261 89.5413 178.723 90.6667 176.206 91.8686C171.88 93.9349 167.418 96.3164 163.61 99.1111C159.81 101.901 156.589 105.153 154.839 108.99C151.576 116.141 149.082 119.441 145.788 122.265C144.113 123.701 142.22 125.024 139.856 126.675C137.5 128.32 134.71 130.269 131.299 132.927Z" fill="#A6E14E" stroke="#83AE44" stroke-width="2"/>
<path d="M97.2173 80.249C106.609 82.3278 112.533 84.781 116.997 88.3686C121.465 91.9586 124.566 96.7584 128.175 103.747C135.307 117.554 137.049 133.585 133.056 148.676C129.055 163.796 122.275 175.173 106.611 185.256C105.656 185.871 104.736 186.467 103.847 187.044C97.2683 191.313 92.3411 194.51 86.8458 196.103C80.6857 197.888 73.729 197.666 62.8675 194.301C51.9108 190.905 44.6823 188.153 39.0127 184.722C33.3723 181.308 29.2276 177.193 24.5 170.99C15.1001 158.655 10.6283 143.186 11.9702 127.634C13.3122 112.083 20.3703 97.5814 31.7498 86.9904C37.5248 81.6157 42.0792 77.8226 46.9554 75.3363C51.8013 72.8654 57.0226 71.6577 64.1594 71.5719C71.3303 71.4858 75.761 72.8696 78.3533 75.5921C80.7069 78.0641 81.7444 81.8483 81.6514 87.3161C81.2994 88.476 81.0942 89.5651 80.9907 90.4588C80.8866 91.3567 80.875 92.1443 80.9629 92.6159C80.9823 92.7202 81.0265 92.9301 81.1479 93.1281C81.2079 93.2259 81.356 93.4366 81.6409 93.5585C81.9899 93.7077 82.3374 93.6397 82.5804 93.496C82.78 93.378 82.894 93.2222 82.9455 93.1443C83.0055 93.0537 83.0475 92.9649 83.0765 92.8956C83.1347 92.7565 83.1797 92.6013 83.2165 92.4483C83.3618 91.8443 83.4957 90.7726 83.5855 89.141C83.6136 88.6318 83.6336 88.1318 83.6452 87.641C84.3362 85.4927 85.5689 83.1996 87.6313 81.6652C89.6968 80.1286 92.7259 79.2549 97.2173 80.249ZM82.9327 92.2658C82.9324 92.2655 82.9313 92.261 82.9295 92.2519C82.9321 92.2613 82.933 92.2663 82.9327 92.2658Z" fill="#FCA31E" stroke="#D35800" stroke-width="2"/>
<path d="M93.0001 140.125C93.0001 159.644 65.0016 170.648 46.5001 170.648C27.9986 170.648 13.0001 154.825 13.0001 135.306C13.0001 115.787 33.9986 87.6478 52.5001 87.6478C71.0016 87.6478 93.0001 120.606 93.0001 140.125Z" fill="#EB7927"/>
<path d="M129 116.148C129 128.022 131.941 137.648 122 137.648C112.059 137.648 93.0001 128.022 93.0001 116.148C98.5001 104.148 88.559 87.6478 98.5001 87.6478C108.441 87.6478 129 104.274 129 116.148Z" fill="#FDCE5D"/>
</svg>
